<svg xmlns="http://www.w3.org/2000/svg" viewBox="0 0 512 512" role="img" aria-label="Smart Money lotus logo">
  <defs>
    <linearGradient id="petalTop" x1="0" y1="0" x2="0" y2="1">
      <stop offset="0%" stop-color="#86DDF2" />
      <stop offset="100%" stop-color="#53C8E6" />
    </linearGradient>
    <linearGradient id="petalSide" x1="0" y1="0" x2="0" y2="1">
      <stop offset="0%" stop-color="#74D3E8" />
      <stop offset="100%" stop-color="#49BFDD" />
    </linearGradient>
    <linearGradient id="petalOuter" x1="0" y1="0" x2="0" y2="1">
      <stop offset="0%" stop-color="#58C6E4" />
      <stop offset="100%" stop-color="#3FB6DA" />
    </linearGradient>
  </defs>

  <rect x="8" y="8" width="496" height="496" rx="112" fill="#0B2A66" />
  <circle cx="256" cy="256" r="204" fill="none" stroke="#1F5EAB" stroke-width="10" />

  <g transform="translate(256 274)">
    <path d="M0-124 C34-102 42-62 34-20 C22-26 10-32 0-38 C-10-32 -22-26 -34-20 C-42-62 -34-102 0-124 Z" fill="url(#petalTop)" />

    <path d="M-94-82 C-54-78 -24-50 -14-12 C-34-16 -50-16 -62-10 C-72-5 -80 2 -88 12 C-110-20 -114-58 -94-82 Z" fill="url(#petalSide)" />
    <path d="M94-82 C54-78 24-50 14-12 C34-16 50-16 62-10 C72-5 80 2 88 12 C110-20 114-58 94-82 Z" fill="url(#petalSide)" />

    <path d="M-146-8 C-102-14 -60 4 -36 38 C-58 36 -74 42 -88 52 C-98 60 -106 70 -116 84 C-144 58 -158 22 -146-8 Z" fill="url(#petalOuter)" />
    <path d="M146-8 C102-14 60 4 36 38 C58 36 74 42 88 52 C98 60 106 70 116 84 C144 58 158 22 146-8 Z" fill="url(#petalOuter)" />
  </g>

  <rect x="178" y="357" width="156" height="20" rx="10" fill="#42BEE4" />
  <rect x="150" y="385" width="212" height="16" rx="8" fill="#33B3DD" />
</svg>